<svg width="28" height="27" viewBox="0 0 28 27" fill="none" xmlns="http://www.w3.org/2000/svg">
<path d="M25.4252 26.6667C22.5759 26.6667 19.6544 25.9633 16.6608 24.5567C13.6672 23.1489 10.881 21.1739 8.30216 18.6317C5.74363 16.0883 3.7509 13.3467 2.32397 10.4067C0.897054 7.46667 0.183594 4.59222 0.183594 1.78333C0.183594 1.28333 0.35266 0.861111 0.690793 0.516666C1.02893 0.172222 1.45159 0 1.95879 0H6.1398C6.59966 0 7.00092 0.142778 7.34356 0.428333C7.6862 0.713889 7.91782 1.07944 8.03842 1.525L8.87699 5.5C8.95589 5.96666 8.9418 6.37389 8.83472 6.72166C8.72877 7.06944 8.54167 7.35444 8.27342 7.57666L4.56241 10.9867C5.25671 12.2289 6.02371 13.3822 6.86341 14.4467C7.70311 15.5122 8.59916 16.5217 9.55157 17.475C10.5322 18.4417 11.5883 19.3417 12.7199 20.175C13.8515 21.0072 15.0936 21.7928 16.4461 22.5317L20.0624 18.9033C20.3374 18.6111 20.6468 18.4183 20.9906 18.325C21.3344 18.2328 21.7142 18.2144 22.1301 18.27L25.6873 18.9867C26.146 19.0978 26.5185 19.3255 26.8048 19.67C27.0911 20.0155 27.2342 20.4117 27.2342 20.8583V24.9167C27.2342 25.4167 27.0595 25.8333 26.7101 26.1667C26.3607 26.5 25.9324 26.6667 25.4252 26.6667Z" fill="white"/>
</svg>
